<svg width="163" height="87" viewBox="0 0 163 87" fill="none" xmlns="http://www.w3.org/2000/svg">
<g filter="url(#filter0_d_7_100)">
<path d="M8.5673 55.9523L7.90714 55.1455C6.63571 53.5806 6 52.1747 6 50.9277C6 49.6808 7.05137 48.0304 9.15411 45.9765C10.3766 44.8029 11.6725 44.2161 13.0417 44.2161C14.411 44.2161 16.3181 45.4386 18.7631 47.8837C19.4478 48.715 20.4258 49.5096 21.6972 50.2676C22.9686 51.0255 24.1423 51.4045 25.2181 51.4045C29.7659 51.4045 32.0398 49.5463 32.0398 45.8298C32.0398 44.7051 31.4163 43.7638 30.1693 43.0058C28.9223 42.2478 27.3697 41.6977 25.5115 41.3554C23.6532 41.0131 21.6483 40.4629 19.4967 39.705C17.345 38.947 15.3401 38.0546 13.4818 37.0277C11.6236 36.0007 10.071 34.3748 8.82403 32.1498C7.57705 29.9248 6.95357 27.2475 6.95357 24.1178C6.95357 19.8145 8.55508 16.0614 11.7581 12.8584C14.9611 9.65534 19.3255 8.05384 24.8513 8.05384C27.7854 8.05384 30.4627 8.43282 32.8833 9.19079C35.3039 9.94875 36.9787 10.7189 37.9079 11.5014L39.7417 12.895C41.2576 14.3132 42.0155 15.5112 42.0155 16.4893C42.0155 17.4673 41.4287 18.812 40.2551 20.5236C38.5925 22.9686 36.8809 24.1912 35.1205 24.1912C34.0936 24.1912 32.8222 23.7021 31.3062 22.7241C31.1595 22.6263 30.8784 22.3818 30.4627 21.9906C30.047 21.5994 29.6681 21.2815 29.3258 21.037C28.2988 20.4013 26.9907 20.0835 25.4014 20.0835C23.8122 20.0835 22.4918 20.4625 21.4405 21.2204C20.3891 21.9784 19.8634 23.0298 19.8634 24.3745C19.8634 25.7193 20.4869 26.8074 21.7339 27.6387C22.9809 28.47 24.5335 29.0323 26.3917 29.3258C28.2499 29.6192 30.2793 30.0715 32.4799 30.6828C34.6804 31.294 36.7098 32.0398 38.568 32.92C40.4263 33.8002 41.9789 35.3283 43.2258 37.5044C44.4728 39.6805 45.0963 42.3579 45.0963 45.5364C45.0963 48.715 44.4606 51.5146 43.1892 53.9352C41.9177 56.3558 40.2551 58.2262 38.2013 59.5465C34.2403 62.1383 30.0104 63.4342 25.5115 63.4342C23.2131 63.4342 21.037 63.153 18.9832 62.5906C16.9294 62.0283 15.2667 61.3314 13.9953 60.5001C11.4036 58.9353 9.59422 57.4193 8.5673 55.9523ZM51.3923 56.2457V30.4994C51.3923 29.3747 51.429 28.5311 51.5023 27.9688C51.5757 27.4064 51.7835 26.7585 52.1258 26.0249C52.8104 24.7535 54.7176 24.1178 57.8472 24.1178C60.1945 24.1178 61.8571 24.5335 62.8351 25.3648C63.6664 26.0494 64.1066 27.1008 64.1555 28.5189C64.2044 29.0079 64.2288 29.717 64.2288 30.6461V56.3191C64.2288 57.4438 64.1921 58.2873 64.1188 58.8497C64.0454 59.4121 63.8131 60.06 63.4219 60.7935C62.7862 62.0649 60.9035 62.7006 57.7739 62.7006C54.6931 62.7006 52.8104 62.0405 52.1258 60.7202C51.7835 59.9866 51.5757 59.3509 51.5023 58.813C51.429 58.2751 51.3923 57.4193 51.3923 56.2457ZM63.4586 16.8927C63.0919 17.6018 62.4439 18.103 61.5148 18.3964C60.5857 18.6898 59.3509 18.8365 57.8106 18.8365C56.2702 18.8365 55.0354 18.6898 54.1063 18.3964C53.1772 18.103 52.5293 17.5895 52.1625 16.856C51.7957 16.1225 51.5757 15.4746 51.5023 14.9122C51.429 14.3498 51.3923 13.5063 51.3923 12.3816C51.3923 11.2569 51.429 10.4133 51.5023 9.85095C51.5757 9.28859 51.7835 8.6651 52.1258 7.98049C52.8104 6.66016 54.7176 6 57.8472 6C60.928 6 62.7862 6.66016 63.4219 7.98049C63.8131 8.714 64.0454 9.36194 64.1188 9.9243C64.1921 10.4867 64.2288 11.3302 64.2288 12.4549C64.2288 13.5796 64.1921 14.4232 64.1188 14.9855C64.0454 15.5479 63.8254 16.1836 63.4586 16.8927ZM107.567 24.4846C110.452 25.756 111.895 27.2964 111.895 29.1057C111.895 29.9859 111.699 30.8172 111.308 31.5996C110.917 32.3821 110.721 32.7977 110.721 32.8466L91.5033 75.8306C91.1121 76.7597 90.782 77.4687 90.5131 77.9577C90.2441 78.4468 89.8162 78.9113 89.2294 79.3514C88.6426 79.7915 87.9091 80.0116 87.0289 80.0116C86.1487 80.0116 84.8528 79.6448 83.1412 78.9113C80.2561 77.6399 78.8135 76.124 78.8135 74.3635C78.8135 73.1899 81.1608 67.5907 85.8552 57.566L71.2583 32.9933C70.2803 31.3796 69.7913 30.1815 69.7913 29.3991C69.7913 27.8343 71.1116 26.2694 73.7523 24.7046C75.4149 23.7266 76.7108 23.2376 77.6399 23.2376C78.569 23.2376 79.327 23.4332 79.9138 23.8244C80.5006 24.2156 80.9285 24.619 81.1974 25.0347C81.4664 25.4504 82.8112 27.7242 85.2318 31.8564C87.6524 35.9885 89.9629 39.8395 92.1635 43.4092C92.408 42.6268 93.7283 39.6072 96.1244 34.3503C98.5206 29.0935 99.8042 26.2939 99.9754 25.9516C100.147 25.6093 100.428 25.1936 100.819 24.7046C101.455 23.8733 102.347 23.4576 103.496 23.4576C104.645 23.4576 106.002 23.7999 107.567 24.4846ZM134.622 62.5539C129.683 62.5539 125.587 60.6835 122.335 56.9426C119.083 53.2016 117.457 48.6416 117.457 43.2625V30.426C117.457 29.2524 117.494 28.3966 117.568 27.8587C117.641 27.3208 117.849 26.6851 118.191 25.9516C118.876 24.6313 120.783 23.9711 123.912 23.9711C127.335 23.9711 129.34 24.9002 129.927 26.7585C130.221 27.5409 130.367 28.7878 130.367 30.4994V43.3359C130.367 45.3408 130.942 46.9056 132.091 48.0304C133.24 49.1551 134.781 49.7174 136.712 49.7174C138.644 49.7174 140.209 49.1306 141.407 47.957C142.605 46.7834 143.204 45.243 143.204 43.3359V30.3527C143.204 29.228 143.241 28.3844 143.314 27.822C143.387 27.2597 143.619 26.6117 144.011 25.8782C144.646 24.6068 146.529 23.9711 149.659 23.9711C152.74 23.9711 154.622 24.6313 155.307 25.9516C155.649 26.6851 155.857 27.333 155.93 27.8954C156.004 28.4578 156.04 29.3013 156.04 30.426V56.3924C156.04 57.4683 156.004 58.2873 155.93 58.8497C155.857 59.4121 155.625 60.0355 155.233 60.7202C154.5 61.9916 152.617 62.6273 149.585 62.6273C146.602 62.6273 144.769 62.0405 144.084 60.8669C143.595 60.0355 143.351 59.0331 143.351 57.8595C143.155 58.2018 142.715 58.6908 142.03 59.3265C141.346 59.9622 140.685 60.5001 140.05 60.9402C138.387 62.016 136.578 62.5539 134.622 62.5539Z" fill="currentColor"/>
</g>
<defs>
<filter id="filter0_d_7_100" x="0" y="0" width="162.04" height="86.0116" filterUnits="userSpaceOnUse" color-interpolation-filters="sRGB">
<feFlood flood-opacity="0" result="BackgroundImageFix"/>
<feColorMatrix in="SourceAlpha" type="matrix" values="0 0 0 0 0 0 0 0 0 0 0 0 0 0 0 0 0 0 127 0" result="hardAlpha"/>
<feOffset/>
<feGaussianBlur stdDeviation="3"/>
<feComposite in2="hardAlpha" operator="out"/>
<feColorMatrix type="matrix" values="0 0 0 0 0 0 0 0 0 0 0 0 0 0 0 0 0 0 0.25 0"/>
<feBlend mode="normal" in2="BackgroundImageFix" result="effect1_dropShadow_7_100"/>
<feBlend mode="normal" in="SourceGraphic" in2="effect1_dropShadow_7_100" result="shape"/>
</filter>
</defs>
</svg>
