<svg viewBox="0 0 264 264" fill="none" xmlns="http://www.w3.org/2000/svg">
<path d="M228.169 127.085C228.067 127.188 227.964 127.291 227.861 127.385L216.422 138.375C215.711 139.058 215.3 140.001 215.3 140.992C215.216 151.815 211.076 162.609 202.87 170.871L141.169 230.152C141.113 230.198 141.066 230.254 141.019 230.301C135.412 235.853 126.346 235.918 120.758 230.338L120.72 230.301L61.0749 171.217C52.8973 163.03 48.729 152.329 48.5701 141.581C48.5514 140.618 48.1683 139.712 47.486 139.039L35.7009 127.357C33.3457 125.001 31.1775 122.534 29.1868 119.973C27.3551 117.609 23.5887 118.356 22.7662 121.235C15.8783 145.375 21.9251 172.46 40.8972 191.441C40.9159 191.46 40.9252 191.469 40.9439 191.488L100.589 250.572C117.262 267.217 144.346 267.245 161.057 250.656L222.777 191.357C222.842 191.291 222.917 191.226 222.982 191.161C241.955 172.189 248.001 145.095 241.113 120.955C240.291 118.076 236.534 117.338 234.693 119.693C232.693 122.263 230.525 124.73 228.169 127.085Z" fill="currentColor"/>
<path d="M131.72 81.9917C110.122 67.2066 82.1497 65.6085 59.1682 77.1973C57.5888 77.9917 56.7944 79.7955 57.2804 81.4964C58.8785 87.0852 61.8692 92.3469 66.2524 96.7395L70.3832 100.833C71.4393 101.88 73.0375 102.188 74.4113 101.599C90.0843 94.8516 109 97.889 121.757 110.712C127.299 116.282 136.346 116.188 141.898 110.637L142.169 110.366C154.907 97.6273 173.72 94.5993 189.356 101.282C190.711 101.861 192.281 101.581 193.347 100.553L197.711 96.3563C202.048 91.9731 205.001 86.7301 206.58 81.1693C207.057 79.487 206.244 77.702 204.674 76.9169C181.552 65.2533 153.374 66.9449 131.729 81.9917H131.72Z" fill="currentColor"/>
<path d="M222.973 20.8886C250.824 48.7392 250.824 94.0479 222.973 121.889C222.908 121.955 222.842 122.02 222.768 122.085L161.048 181.385C144.337 197.974 117.253 197.946 100.58 181.301L40.9347 122.216C40.916 122.198 40.9067 122.188 40.888 122.17C13.0373 94.319 13.0373 49.0103 40.888 21.169C65.561 -3.50408 103.935 -6.31718 131.73 12.7203C159.552 -6.62559 198.179 -3.90595 222.973 20.8886ZM202.861 101.599C219.478 84.8797 219.44 57.7673 202.767 41.0943C186.057 24.3839 158.87 24.3839 142.169 41.0943L141.889 41.3747C136.309 46.9542 127.262 46.9542 121.692 41.3747C104.982 24.6643 77.7947 24.6643 61.0937 41.3747C44.3927 58.0757 44.3833 85.2441 61.075 101.955L120.72 161.039C120.739 161.058 120.748 161.067 120.767 161.086C126.337 166.656 135.403 166.656 140.963 161.086C141.029 161.02 141.094 160.955 141.169 160.889L202.861 101.599Z" fill="currentColor"/>
</svg>
